<svg xmlns="http://www.w3.org/2000/svg" width="846" height="181" fill="none" viewBox="0 0 846 181"><path fill="currentColor" d="M.984 168.652h80.65v9.919H.984zM806.23 180.323q-13.115 0-22.634-4.815-9.519-4.96-14.808-13.714-5.288-8.9-5.288-20.716 0-12.11 5.288-20.863 5.289-8.9 14.596-13.714 9.52-4.96 22-4.96 12.27 0 21.366 4.814 9.095 4.67 13.961 12.985 5.077 8.316 5.077 18.966v5.544h-67.48v3.501q0 9.92 7.403 16.486 7.616 6.419 20.519 6.419 9.097 0 15.654-3.501 6.77-3.502 10.366-9.629l10.576 5.835q-4.23 7.587-13.75 12.547-9.307 4.815-22.846 4.815m-.846-69.153q-7.826 0-13.961 3.064-5.923 2.917-9.519 8.17-3.596 5.106-3.596 11.671v1.021h52.249v-1.605q0-9.92-6.981-16.048-6.98-6.273-18.192-6.273M688.845 178.572h-14.173v-75.28h14.173v12.255h.634q2.962-5.544 8.885-9.775t17.135-4.231q14.172 0 22.846 7.586 8.673 7.441 8.673 21.155v48.29h-14.173v-46.248q0-10.358-5.5-15.318-5.5-5.107-15.866-5.107-5.71 0-11 1.605-5.077 1.46-8.461 4.669-3.173 3.209-3.173 8.17zM620.783 86.284q-5.682 0-8.032-2.043-2.155-2.19-2.155-5.4v-2.336q0-3.212 2.155-5.255 2.35-2.19 8.032-2.19 5.681 0 8.032 2.19 2.35 2.043 2.351 5.255v2.335q0 3.212-2.351 5.4-2.351 2.044-8.032 2.044m-36.83 91.958v-9.925l27.952.161v-55.466l-27.952-.162v-9.926h43.491v65.393h28.405v9.925zM485.655 178.573v-9.921h31.73l-.303-113.505h-31.73v-9.92h45.903l.303 123.425h31.731v9.921zM431.738 180.323q-13.115 0-22.634-4.815-9.519-4.96-14.808-13.714-5.288-8.9-5.288-20.716 0-12.11 5.288-20.863 5.289-8.9 14.596-13.714 9.52-4.96 22-4.96 12.27 0 21.365 4.814 9.096 4.67 13.962 12.985 5.076 8.316 5.077 18.966v5.544h-67.481v3.501q0 9.92 7.404 16.486 7.616 6.419 20.519 6.419 9.096 0 15.654-3.501 6.77-3.502 10.365-9.629l10.577 5.835q-4.23 7.587-13.75 12.547-9.307 4.815-22.846 4.815m-.846-69.153q-7.827 0-13.961 3.064-5.924 2.917-9.519 8.17-3.597 5.106-3.597 11.671v1.021h52.25v-1.605q0-9.92-6.981-16.048-6.981-6.273-18.192-6.273M337.353 180.322q-13.008 0-22.382-3.952-9.373-4.097-15.877-10.829l8.608-6.879q5.931 5.708 13.008 8.781 7.078 3.073 16.834 3.073 9.565 0 15.687-3.073 6.121-3.219 6.121-9.951 0-6-4.4-8.049-4.4-2.196-9.947-2.927l-13.008-1.756a135 135 0 0 1-9.374-1.61 49.7 49.7 0 0 1-9.182-3.22q-4.209-2.194-6.887-6-2.678-3.951-2.678-10.098 0-7.61 4.209-12.586 4.4-4.976 11.86-7.463 7.461-2.488 17.025-2.488 11.096 0 19.321 3.22t14.156 8.927l-8.225 7.171q-2.87-3.22-8.991-6.293-5.93-3.22-16.834-3.22-9.565 0-14.922 3.073-5.165 3.074-5.165 8.927 0 3.953 2.105 6.147t5.356 3.22a56 56 0 0 0 7.078 1.609l13.008 1.757q4.4.585 9.182 1.756 4.974 1.024 9.183 3.219 4.4 2.049 7.078 6 2.678 3.805 2.678 9.952 0 11.123-9.565 17.415-9.373 6.147-25.06 6.147M286.507 178.572h-9.731q-8.249 0-11.846-3.502t-4.442-8.753h-.846q-2.961 6.42-9.519 10.212-6.558 3.794-17.769 3.794-14.174 0-22.635-6.128-8.461-6.127-8.461-16.777 0-10.358 9.307-16.049 9.309-5.835 29.827-5.835h19.25v-7.441q0-8.17-5.712-12.4t-15.865-4.231q-9.096 0-15.019 3.063-5.712 2.919-9.308 8.024l-9.519-5.835q3.385-5.982 12.058-10.504 8.673-4.67 22.634-4.669 15.866 0 25.385 6.711t9.519 18.674v41.433h12.692zm-51.615-8.024q10.788 0 17.769-3.939 6.981-4.085 6.981-9.921v-12.401h-19.25q-12.692 0-18.615 2.918-5.712 2.918-5.712 8.462v3.064q0 5.835 4.866 8.899 5.076 2.918 13.961 2.918M105.867 178.571V45.246h14.588v70.3h.884q9.282-14.006 29.175-14.006 17.46 0 27.406 10.504 9.946 10.359 9.946 28.887t-9.946 29.032q-9.945 10.359-27.406 10.359-19.893 0-29.175-14.006h-.884v12.255zm38.9-8.608q12.82 0 19.892-6.127 7.294-6.273 7.294-16.486v-12.838q0-10.213-7.294-16.34-7.073-6.274-19.892-6.274-9.725 0-17.019 3.94t-7.293 11.525v27.136q0 7.586 7.293 11.525 7.295 3.939 17.019 3.939"/><path fill="var(--color-text-primary)" stroke="var(--color-text-muted)" stroke-linejoin="round" stroke-width="2" d="m263.417 15.879.169.015a1 1 0 0 1 .802.748l4.062 16.629.002.007 2.671 11.32 2.672-11.32.002-.008 4.062-16.628.054-.162c.156-.36.515-.601.918-.601h3.672l.114.007a1 1 0 0 1 .858 1.23l-11.853 48.425v.002c-.57 2.314-1.318 4.144-2.302 5.386l-.001-.001c-1.094 1.435-2.765 2.073-4.79 2.073h-3.505a1 1 0 0 1-1-1v-5.234a1 1 0 0 1 1-1h4.78l2.425-9.933-9.567-38.715a.998.998 0 0 1 .971-1.24zM240.475 1.867a1 1 0 0 1 1 1V15.88h9.906a1 1 0 0 1 1 1v5.235a1 1 0 0 1-1 1h-9.906V50.37h9.906a1 1 0 0 1 1 1v5.234a1 1 0 0 1-1 1h-9.348c-1.055 0-2.025-.252-2.873-.79-.843-.535-1.509-1.315-2.018-2.285l-.009-.014c-.946-1.879-1.387-4.23-1.387-6.995V23.115h-6.957a1 1 0 0 1-1-1V16.88a1 1 0 0 1 1-1h5.954c.522 0 .714-.15.817-.297.184-.327.353-1.038.353-2.321V2.867a1 1 0 0 1 1-1zM216.268 1.867l.102.005a1 1 0 0 1 .898.995v47.116h7.513a1 1 0 0 1 1 1v5.62a1 1 0 0 1-1 1H203.08a1 1 0 0 1-1-1v-5.62a1 1 0 0 1 1-1h8.292V10.524l-6.617 10.284a1 1 0 0 1-1.714-.054l-2.281-4.08a1 1 0 0 1 .032-1.03l8.569-13.318a1 1 0 0 1 .841-.459zM186.088 1.867a1 1 0 0 1 1 1v47.116h7.514a1 1 0 0 1 1 1v5.62a1 1 0 0 1-1 1H172.9a1 1 0 0 1-1-1v-5.62a1 1 0 0 1 1-1h8.292V10.524l-6.617 10.284a1 1 0 0 1-1.714-.054l-2.281-4.08a1 1 0 0 1 .032-1.03l8.57-13.318a1 1 0 0 1 .84-.459z"/></svg>
